# xmcd CD database file
#
# Track frame offsets:
#	150
#	10663
#	31852
#	53475
#	70632
#	86472
#	101816
#	127409
#	141241
#	160584
#	181270
#	199714
#	223558
#	247228
#	268477
#	287306
#
# Disc length: 4077 seconds
#
# Revision: 1
# Processed by: cddbd v1.5.1PL0 Copyright (c) Steve Scherf et al.
# Submitted via: CDex 1.50
#
DISCID=e30feb10
DTITLE=Ladysmith Black Mambazo - Rain, Rain, Beautiful rain
DYEAR=2004
DGENRE=World
TTITLE0=Rain, Rain, Beautiful Rain
TTITLE1=How Long
TTITLE2=Inkanyezi Nezazi (Star and the Wise Man)
TTITLE3=Swing Low Sweet Chariot
TTITLE4=Shosholoza (Nkosi Sikel'i Africa)
TTITLE5=Hello My Baby
TTITLE6=Knockin' on Heaven's Door
TTITLE7=Music Knows No Boundaries
TTITLE8=Sisesiqhingini (Everything is so Stupid, Stupid, Stupid)
TTITLE9=Wenza Ngani (How Did You Know That?)
TTITLE10=Homeless
TTITLE11=Halala South Africa (Congratulations South Africa)
TTITLE12=Isimanga Salomhlaba (The Wonder of this World)
TTITLE13=Dlondlobala Njalo (Preserve South Africa's Traditional Culture)
TTITLE14=Amazing Grace
TTITLE15=Silent Night
EXTD=YEAR: 2004
EXTT0=
EXTT1=
EXTT2=
EXTT3=
EXTT4=
EXTT5=
EXTT6=
EXTT7=
EXTT8=
EXTT9=
EXTT10=
EXTT11=
EXTT12=
EXTT13=
EXTT14=
EXTT15=
PLAYORDER=
